<svg aria-hidden="true" style="position: absolute; width: 0; height: 0; overflow: hidden;" version="1.1" xmlns="http://www.w3.org/2000/svg" xmlns:xlink="http://www.w3.org/1999/xlink">
<defs>
<symbol id="icon-mobile" viewBox="0 0 32 32">
<path d="M23 0h-14c-1.65 0-3 1.35-3 3v26c0 1.65 1.35 3 3 3h14c1.65 0 3-1.35 3-3v-26c0-1.65-1.35-3-3-3zM12 1.5h8v1h-8v-1zM16 30c-1.105 0-2-0.895-2-2s0.895-2 2-2 2 0.895 2 2-0.895 2-2 2zM24 24h-16v-20h16v20z"></path>
</symbol>
<symbol id="icon-arrow" viewBox="0 0 58 32">
<path stroke-linejoin="round" stroke-linecap="round" stroke-miterlimit="4" stroke-width="4.8" d="M52.8 4l-24 24-24-24"></path>
</symbol>
<symbol id="icon-checkmark" viewBox="0 0 32 32">
<path d="M27 4l-15 15-7-7-5 5 12 12 20-20z"></path>
</symbol>
<symbol id="icon-thought-cloud" viewBox="0 0 32 32">
<path d="M18.245 19.773c0.112 0.024 0.184 0.044 0.257 0.064 0.681 0.253 1.371 0.502 2.052 0.755 0.193 0.069 0.379 0.14 0.57 0.228 0.113 0.052 0.223 0.123 0.325 0.198 0.236 0.184 0.265 0.388 0.098 0.645-0.062 0.090-0.128 0.169-0.2 0.242l0-0c-0.391 0.434-0.816 0.824-1.27 1.188-0.087 0.069-0.155 0.125-0.221 0.181l0.014-0.011c0.051 0.037 0.091 0.069 0.139 0.098 1.376 0.668 2.684 1.455 4.021 2.194 0.059 0.034 0.119 0.068 0.181 0.11 0.083 0.072 0.116 0.163 0.081 0.269-0.027 0.103-0.105 0.17-0.21 0.19-0.080 0.011-0.166 0.005-0.252-0-0.213-0.023-0.378-0.046-0.541-0.073l0.059 0.008c-0.078-0.009-0.156-0.017-0.225-0.029-0.729-0.125-1.107-0.2-1.483-0.278l0.367 0.064c-0.243-0.050-0.497-0.106-0.732-0.187-1.213-0.402-2.417-0.807-3.591-1.307-0.579-0.253-1.181-0.442-1.772-0.653-0.056-0.026-0.117-0.041-0.174-0.067-0.178-0.102-0.195-0.301-0.027-0.429 0.047-0.035 0.101-0.065 0.159-0.087l0.005-0.002c-0.013-0.013 0.368-0.163 0.751-0.309l0.401-0.135 0.23-0.085c-0.274-0.16-0.506-0.308-0.751-0.442-0.316-0.173-0.629-0.337-0.944-0.51-0.070-0.039-0.131-0.026-0.197-0.002-1.211 0.513-2.474 0.811-3.774 0.954-1.345 0.151-2.651-0.076-3.916-0.543-0.757-0.281-1.336-0.786-1.775-1.445-0.125-0.187-0.212-0.398-0.313-0.594-0.56-1.063-0.735-2.193-0.612-3.378 0.101-0.915 0.331-1.784 0.658-2.642 0.475-1.268 1.125-2.441 1.876-3.568 1.248-1.88 2.693-3.58 4.428-5.023 0.92-0.769 1.897-1.438 2.975-1.957 1.291-0.626 2.647-1.024 4.091-1.081 1.436-0.054 2.703 0.393 3.799 1.314 0.646 0.536 1.187 1.167 1.59 1.906 0.545 1.022 0.743 2.115 0.639 3.274-0.079 0.823-0.281 1.616-0.536 2.392-1.034 3.192-2.868 5.838-5.477 7.95-0.203 0.159-0.402 0.326-0.605 0.485-0.041 0.015-0.076 0.047-0.168 0.127z"></path>
<path d="M7.411 7.771c-0.040 0.118-0.066 0.202-0.102 0.28-0.259 0.562-0.515 1.133-0.783 1.699-0.426 0.895-0.877 1.771-1.292 2.671-0.501 1.072-0.842 2.197-1.004 3.377-0.168 1.164-0.103 2.325 0.26 3.461 0.268 0.853 0.673 1.647 1.255 2.337 0.15 0.178 0.332 0.344 0.504 0.505 0.117 0.116 0.231 0.223 0.341 0.341 0.092 0.097 0.089 0.191 0.033 0.268-0.064 0.080-0.163 0.088-0.282 0.020-0.048-0.029-0.096-0.058-0.139-0.098-0.666-0.464-1.154-1.077-1.55-1.771-0.934-1.644-1.176-3.412-0.905-5.258 0.159-1.086 0.467-2.124 0.904-3.116 0.558-1.27 1.217-2.494 1.902-3.699 0.16-0.274 0.349-0.521 0.535-0.776 0.066-0.099 0.155-0.188 0.322-0.24zM25.634 5.115c0.334 0.931 0.448 1.898 0.435 2.873-0.014 1.228-0.217 2.423-0.64 3.578-0.174 0.465-0.367 0.929-0.555 1.381-0.033 0.084-0.072 0.157-0.117 0.224l0.002-0.004c-0.076 0.121-0.164 0.163-0.251 0.13-0.090-0.041-0.123-0.132-0.081-0.269 0.015-0.061 0.041-0.118 0.067-0.174 0.191-0.519 0.391-1.040 0.563-1.561 0.495-1.518 0.647-3.077 0.425-4.666-0.136-0.949-0.488-1.827-0.998-2.628-0.286-0.445-0.685-0.793-1.081-1.132-0.467-0.406-0.977-0.75-1.534-1.021-0.166-0.085-0.297-0.16-0.425-0.24l0.024 0.014c-0.059-0.034-0.113-0.080-0.167-0.125-0.057-0.054-0.131-0.101-0.089-0.191 0.036-0.079 0.122-0.073 0.184-0.058 0.162 0.034 0.312 0.062 0.464 0.118 0.793 0.277 1.489 0.72 2.092 1.291 0.4 0.375 0.819 0.752 1.084 1.243 0.204 0.401 0.391 0.808 0.598 1.217z"></path>
</symbol>
<symbol id="icon-lightning" viewBox="0 0 31 32">
<path d="M8.95 15.005c-0.474-0.228-0.918-0.439-1.368-0.674-1.351-0.626-2.053-0.977-2.75-1.335l0.61 0.285c-0.169-0.075-0.314-0.158-0.449-0.255l0.007 0.005c-0.559-0.397-0.627-1.058-0.178-1.568 0.049-0.052 0.099-0.104 0.156-0.133 1.702-1.409 3.232-2.976 4.74-4.574 1.681-1.763 3.378-3.517 5.065-5.256 0.331-0.336 0.677-0.663 1.007-0.998 0.454-0.447 0.957-0.625 1.57-0.358 0.643 0.284 1.298 0.513 1.932 0.812 2.836 1.384 5.749 2.63 8.656 3.853 1.074 0.453 1.789 0.785 2.496 1.132l-0.321-0.142c0.252 0.123 0.487 0.276 0.681 0.466 0.501 0.464 0.434 1.15-0.096 1.554-0.171 0.124-0.363 0.217-0.556 0.308-0.516 0.271-1.022 0.527-1.522 0.807-1.373 0.791-2.73 1.591-4.11 2.359s-2.773 1.526-4.168 2.285c-0.402 0.214-0.797 0.413-1.191 0.612-0.112 0.057-0.234 0.129-0.411 0.23l0.335 0.19c1.255 0.73 2.519 1.446 3.774 2.176 0.091 0.052 0.189 0.127 0.272 0.194 0.51 0.449 0.497 1.146-0.026 1.573-0.188 0.155-0.429 0.26-0.66 0.35-1.090 0.469-2.186 0.914-3.269 1.407-0.513 0.232-1.022 0.527-1.5 0.839-2.561 1.647-5.097 3.287-7.636 4.967-2.619 1.714-5.224 3.477-7.828 5.2-0.195 0.131-0.405 0.254-0.643 0.32-0.581 0.174-1.051-0.133-1.233-0.698-0.128-0.414-0.107-0.805 0.084-1.179 0.342-0.711 0.678-1.446 1.089-2.137 1.459-2.472 2.963-4.917 4.423-7.389 0.987-1.673 1.943-3.363 2.915-5.044 0.056-0.028 0.075-0.098 0.103-0.183z"></path>
</symbol>
<symbol id="icon-instagram" viewBox="0 0 32 32">
<path d="M20 16c0 2.209-1.791 4-4 4s-4-1.791-4-4c0-2.209 1.791-4 4-4v0c2.206 0.008 3.992 1.794 4 3.999v0.001zM28.5 10.5v11c0 3.866-3.134 7-7 7v0h-11c-3.866 0-7-3.134-7-7v0-11c0-3.866 3.134-7 7-7v0h11c3.866 0 7 3.134 7 7v0zM22 16c0-3.314-2.686-6-6-6s-6 2.686-6 6v0c0 3.314 2.686 6 6 6s6-2.686 6-6v0zM24 9.5c0-0.828-0.672-1.5-1.5-1.5s-1.5 0.672-1.5 1.5v0c0 0.828 0.672 1.5 1.5 1.5s1.5-0.672 1.5-1.5v0z"></path>
</symbol><symbol id="icon-tiktok" viewBox="0 0 28 32">
<path d="M22.4 5.013c-1.17-1.331-1.884-3.088-1.884-5.011 0-0.001 0-0.001 0-0.002v0h-5.493v22.044c-0.091 2.473-2.117 4.444-4.604 4.444h-0c-2.524 0-4.622-2.062-4.622-4.622 0-3.058 2.951-5.351 5.991-4.409v-5.618c-6.133-0.818-11.502 3.947-11.502 10.027 0 5.92 4.907 10.133 10.116 10.133 5.582 0 10.116-4.533 10.116-10.133v-11.182c2.114 1.534 4.761 2.453 7.622 2.453 0.008 0 0.016 0 0.024-0h-0.001v-5.493s-3.342 0.16-5.76-2.631z"></path>
</symbol>
<symbol id="icon-twitter" viewBox="0 0 41 32">
<path d="M40.395 3.765c-1.449 0.659-3.012 1.092-4.631 1.299 1.656-0.998 2.936-2.579 3.539-4.48-1.562 0.941-3.294 1.6-5.12 1.976-1.487-1.619-3.576-2.56-5.948-2.56-4.424 0-8.038 3.614-8.038 8.075 0 0.64 0.075 1.261 0.207 1.845-6.701-0.339-12.668-3.558-16.64-8.433-0.696 1.186-1.092 2.579-1.092 4.047 0 2.805 1.412 5.289 3.595 6.701-1.336 0-2.579-0.376-3.671-0.941v0.056c0 3.915 2.786 7.191 6.475 7.925-0.629 0.179-1.351 0.282-2.097 0.282-0.544 0-1.074-0.055-1.587-0.159l0.051 0.009c1.054 3.235 4.013 5.543 7.522 5.609l0.008 0c-2.708 2.159-6.179 3.464-9.956 3.464-0.027 0-0.054-0-0.081-0l0.004 0c-0.64 0-1.28-0.038-1.92-0.113 3.576 2.296 7.831 3.633 12.386 3.633 14.833 0 22.984-12.311 22.984-22.984 0-0.358 0-0.696-0.019-1.054 1.581-1.129 2.936-2.56 4.028-4.198z"></path>
</symbol>
<symbol id="icon-youtube" viewBox="0 0 44 32">
<path d="M42.116 5.89c-0.498-1.81-1.896-3.208-3.669-3.697l-0.037-0.009c-3.27-0.884-16.41-0.884-16.41-0.884s-13.14 0-16.41 0.884c-1.81 0.499-3.206 1.896-3.695 3.669l-0.009 0.037c-0.564 2.936-0.887 6.313-0.887 9.766 0 0.121 0 0.242 0.001 0.363l-0-0.019c-0.020 3.39 0.274 6.774 0.886 10.11 0.499 1.809 1.895 3.205 3.667 3.695l0.037 0.009c3.27 0.886 16.41 0.886 16.41 0.886s13.14 0 16.41-0.886c1.81-0.498 3.207-1.894 3.697-3.667l0.009-0.037c0.61-3.336 0.906-6.72 0.884-10.11 0.001-0.106 0.001-0.231 0.001-0.356 0-3.448-0.322-6.821-0.938-10.091l0.053 0.337zM17.8 22.3v-12.6l10.904 6.3-10.904 6.3z"></path>
</symbol>
<symbol id="icon-logo-element" viewBox="0 0 51 32">
<path d="M5.467 29.267c-0.888 0.621-1.8 0.667-2.733 0.133-0.839-0.441-1.402-1.307-1.402-2.304 0-0.034 0.001-0.067 0.002-0.101l-0 0.005v-22c0-1.067 0.467-1.856 1.4-2.368 0.368-0.226 0.813-0.359 1.289-0.359 0.541 0 1.043 0.173 1.451 0.466l-0.008-0.005 16.533 11.067c0.8 0.533 1.2 1.267 1.2 2.2s-0.4 1.667-1.2 2.2l-16.533 11.067zM32.133 29.267c-0.888 0.621-1.8 0.667-2.733 0.133-0.839-0.441-1.402-1.307-1.402-2.304 0-0.034 0.001-0.067 0.002-0.101l-0 0.005v-22c0-1.067 0.467-1.856 1.4-2.368 0.368-0.226 0.813-0.359 1.289-0.359 0.541 0 1.043 0.173 1.451 0.466l-0.008-0.005 16.533 11.067c0.8 0.533 1.2 1.267 1.2 2.2s-0.4 1.667-1.2 2.2l-16.533 11.067z"></path>
</symbol>
</defs>
</svg>
